# xmcd
#
# Track frame offsets:
#	150
#	10849
#	22944
#	39753
#	55862
#	68453
#	86665
#	102708
#	127954
#
# Disc length: 1884 seconds
# Revision: 0
# Processed by: cddbd v1.5.2PL0 Copyright (c) Steve Scherf et al.
# Submitted via: dBpowerAMP V12.0
#
DISCID=63075a09
DTITLE=Solomon King - Train
DYEAR=2013
DGENRE=Blues
TTITLE0=Baby Does Me Good
TTITLE1=Bad To Be Me 
TTITLE2=Coffee Song
TTITLE3=Slow Blues
TTITLE4=Great Wall 
TTITLE5=Country Song
TTITLE6=My Baby's Love
TTITLE7=Train 
TTITLE8=Blue Angel 
EXTD=
EXTT0=
EXTT1=
EXTT2=
EXTT3=
EXTT4=
EXTT5=
EXTT6=
EXTT7=
EXTT8=
PLAYORDER=
